<svg width="40" height="40" viewBox="0 0 40 40" fill="none" xmlns="http://www.w3.org/2000/svg">
  <rect width="40" height="40" rx="8" fill="#000"/>
  <path d="M20 5C11.7157 5 5 11.7157 5 20C5 28.2843 11.7157 35 20 35C28.2843 35 35 28.2843 35 20C35 11.7157 28.2843 5 20 5ZM20 32.5C13.0964 32.5 7.5 26.9036 7.5 20C7.5 13.0964 13.0964 7.5 20 7.5C26.9036 7.5 32.5 13.0964 32.5 20C32.5 26.9036 26.9036 32.5 20 32.5Z" fill="#00FF00"/>
  <path d="M20 10C14.4772 10 10 14.4772 10 20C10 25.5228 14.4772 30 20 30C25.5228 30 30 25.5228 30 20C30 14.4772 25.5228 10 20 10ZM20 27.5C15.8579 27.5 12.5 24.1421 12.5 20C12.5 15.8579 15.8579 12.5 20 12.5C24.1421 12.5 27.5 15.8579 27.5 20C27.5 24.1421 24.1421 27.5 20 27.5Z" fill="#00FF00"/>
  <path d="M20 15C17.2386 15 15 17.2386 15 20C15 22.7614 17.2386 25 20 25C22.7614 25 25 22.7614 25 20C25 17.2386 22.7614 15 20 15ZM20 22.5C18.6193 22.5 17.5 21.3807 17.5 20C17.5 18.6193 18.6193 17.5 20 17.5C21.3807 17.5 22.5 18.6193 22.5 20C22.5 21.3807 21.3807 22.5 20 22.5Z" fill="#00FF00"/>
</svg>
